# xmcd
#
# Track frame offsets:
#	150
#	16672
#	31765
#	45950
#	61692
#	78912
#	96736
#	112729
#	134226
#	153416
#	173926
#	187396
#	208653
#
# Disc length: 3020 seconds
#
# Revision: 1
# Processed by: cddbd v1.5.1PL0 Copyright (c) Steve Scherf et al.
# Submitted via: audiograbber 1.80
#
DISCID=a80bca0d
DTITLE=Dyann Woody - My Softer Side
DYEAR=1900
DGENRE=
TTITLE0=Someone Who's Real
TTITLE1=To Get Over Me
TTITLE2=Crazy 'round Here
TTITLE3=Will You Ever Come Home
TTITLE4=Broken Hearts Make Beautiful Songs
TTITLE5=My Softer Side
TTITLE6=All You Gotta Say
TTITLE7=What I Knew Back Then
TTITLE8=All That Love Can Do
TTITLE9=I Let You Break My Heart
TTITLE10=When You Come Around
TTITLE11=That's When I Saw Stars
TTITLE12=On The Horizon
EXTD=
EXTT0=
EXTT1=
EXTT2=
EXTT3=
EXTT4=
EXTT5=
EXTT6=
EXTT7=
EXTT8=
EXTT9=
EXTT10=
EXTT11=
EXTT12=
PLAYORDER=
